# xmcd
#
# Track frame offsets: 
#        150
#        19509
#        35018
#        54556
#        71205
#        92363
#        107753
#        125899
#        148054
#        172014
#        191159
#        209692
#        228770
#        251990
#
# Disc length: 3606 seconds
#
# Revision: 2
# Processed by: cddbd v1.5.2PL0 Copyright (c) Steve Scherf et al.
# Submitted via: ExactAudioCopy v1.0b3
#
DISCID=d60e140e
DTITLE=Latoya London - Love and Life
DYEAR=2005
DGENRE=Soul
TTITLE0=Scandalous
TTITLE1=Every Part Of Me
TTITLE2=Learn To Breathe
TTITLE3=Appreciate - (With Black Thought)
TTITLE4=State Of My Heart
TTITLE5=Practice Makes Perfect
TTITLE6=Meet Me Halfway
TTITLE7=Waiting For You
TTITLE8=Anything
TTITLE9=Non A Whatcha Do
TTITLE10=I Can't Hide (What's In My Heart)
TTITLE11=More
TTITLE12=How I Love The Rain
TTITLE13=All By Myself - (Bonus Track)
EXTD=
EXTT0=
EXTT1=
EXTT2=
EXTT3=
EXTT4=
EXTT5=
EXTT6=
EXTT7=
EXTT8=
EXTT9=
EXTT10=
EXTT11=
EXTT12=
EXTT13=
PLAYORDER=
